PathFileType	4	(X/Y/Z)	..\data\2014048\dynamic\2014048_C5_02.trc
DataRate	CameraRate	NumFrames	NumMarkers	Units	OrigDataRate	OrigDataStartFrame	OrigNumFrames
100.000000	100.000000	4	52	mm	100.000000	54	144
Frame#	Time	L_IAS			L_IPS			R_IPS			R_IAS			L_FTC			L_FLE			L_FME			L_FAX			L_TTC			L_FAL			L_TAM			L_FCC			L_FM1			L_FM2			L_FM5			R_FTC			R_FLE			R_FME			R_FAX			R_TTC			R_FAL			R_TAM			R_FCC			R_FM1			R_FM2			R_FM5			CV7			TV10			SXS			SJN			L_SIA			L_SRS			L_SAA			L_SAE			L_HLE			L_HME			L_UOA			L_RSP			L_UHE			L_HM2			L_HM5			R_SIA			R_SRS			R_SAA			R_SAE			R_HLE			R_HME			R_UOA			R_RSP			R_UHE			R_HM2			R_HM5			
		X1	Y1	Z1	X2	Y2	Z2	X3	Y3	Z3	X4	Y4	Z4	X5	Y5	Z5	X6	Y6	Z6	X7	Y7	Z7	X8	Y8	Z8	X9	Y9	Z9	X10	Y10	Z10	X11	Y11	Z11	X12	Y12	Z12	X13	Y13	Z13	X14	Y14	Z14	X15	Y15	Z15	X16	Y16	Z16	X17	Y17	Z17	X18	Y18	Z18	X19	Y19	Z19	X20	Y20	Z20	X21	Y21	Z21	X22	Y22	Z22	X23	Y23	Z23	X24	Y24	Z24	X25	Y25	Z25	X26	Y26	Z26	X27	Y27	Z27	X28	Y28	Z28	X29	Y29	Z29	X30	Y30	Z30	X31	Y31	Z31	X32	Y32	Z32	X33	Y33	Z33	X34	Y34	Z34	X35	Y35	Z35	X36	Y36	Z36	X37	Y37	Z37	X38	Y38	Z38	X39	Y39	Z39	X40	Y40	Z40	X41	Y41	Z41	X42	Y42	Z42	X43	Y43	Z43	X44	Y44	Z44	X45	Y45	Z45	X46	Y46	Z46	X47	Y47	Z47	X48	Y48	Z48	X49	Y49	Z49	X50	Y50	Z50	X51	Y51	Z51	X52	Y52	Z52	

55	0.54	-359.4121398925782	872.4431762695315	110.3567962646484	-567.7748413085939	909.1646118164065	148.3696746826172	-575.9229736328126	908.0872802734377	254.8374481201172	-385.5374450683595	854.4956665039065	347.6766052246094	-423.5933532714845	852.7373046875002	33.72682952880855	-291.3932495117188	443.626190185547	89.79355621337888	-294.1986999511719	442.5200195312501	218.7995147705078	-286.2780456542969	380.5448608398438	87.84998321533202	-239.1898345947266	388.7795410156251	147.7923126220703	-241.6107482910157	63.29191970825197	129.6721801757812	-219.5395050048829	88.1117630004883	213.4317779541016	-280.6342773437501	15.74392032623291	186.6996917724609	-92.59307098388676	41.62383270263673	193.0596618652344	-92.03765869140628	44.2731056213379	142.1162414550782	-145.1848754882813	17.71953964233399	100.9692306518555	-476.8058166503908	829.502380371094	409.6250000000001	-535.5512084960939	410.8948059082032	357.57763671875	-497.3919067382814	402.2585754394532	231.8773345947266	-574.0645141601564	371.4137878417969	360.2261047363281	-521.4472045898439	333.4334106445313	310.7076721191406	-800.1036376953127	135.5088043212891	313.0841064453124	-764.1372680664064	141.1050262451172	231.3361206054687	-849.467712402344	143.1678619384766	257.6912231445312	-732.4485473632814	25.15856552124024	233.0758209228515	-727.8417968750001	31.45927619934083	285.3347778320312	-770.619812011719	36.3499984741211	326.1314392089843	-528.8330688476564	1367.827392578125	212.1859283447266	-580.1782226562501	1088.00830078125	216.4653472900391	-359.3396301269532	1063.534790039063	218.7123413085938	-412.2929992675782	1288.399780273438	208.5513763427734	-603.6859741210939	1144.908325195313	151.4927520751953	-572.2707519531251	1285.544921875	136.7770233154297	-535.9752197265626	1290.866943359375	58.07792663574214	-488.5679931640626	1296.440063476563	43.5464363098144	-606.0242919921876	1005.751159667969	5.370330333709643	-598.0515747070314	993.4147949218752	85.70549011230463	-620.9754638671876	988.9818115234377	46.73371505737298	-597.8163452148439	758.6296386718751	-19.17817878723152	-670.0241088867189	790.626647949219	-32.75611877441415	-625.7261352539064	669.2982177734376	-23.01646232604989	-709.0167846679689	723.4114379882814	-28.21822547912607	-589.7990722656251	1148.405517578125	318.4767456054688	-568.4498901367189	1291.55859375	306.6909790039062	-511.0518493652345	1299.664794921875	378.1611633300781	-462.4067993164064	1300.107666015625	388.9781494140626	-424.6262512207033	994.8317871093752	482.0722656250001	-447.5278930664064	970.332214355469	407.1868286132813	-435.3274841308595	959.3388671875002	456.0954589843751	-190.7765350341798	921.0888671875002	419.4264526367189	-225.1480560302736	870.1323242187502	473.1518554687501	-108.5458602905274	883.4946899414065	425.4012145996095	-168.5757446289063	826.4317626953127	482.2997436523439	
56	0.55	-344.4271240234376	874.5031738281252	108.6040649414062	-553.0752563476564	910.6555175781252	149.4239501953125	-560.1351318359376	908.1805419921877	256.2081604003906	-369.4012145996095	854.0728759765627	345.326904296875	-409.6167907714845	855.8735961914065	32.92205810546871	-277.6018371582032	444.8660583496095	88.73488616943358	-280.3898010253907	444.1402282714845	217.2609252929688	-273.7175903320313	381.3210144042969	86.8803024291992	-227.0231170654298	388.616424560547	146.9992065429688	-239.9869842529298	62.75669097900392	130.0723571777344	-217.5747375488282	86.91624450683595	213.9611968994141	-280.9692077636719	16.27063179016114	186.69921875	-91.38686370849614	35.72859191894532	193.6869506835938	-90.38478851318362	38.96935272216798	142.3177032470703	-145.3909149169922	14.91007614135743	100.6701278686524	-459.0236816406252	828.0796508789065	408.9680175781251	-510.679656982422	408.8779602050782	360.0030212402344	-470.1859130859377	399.0821228027345	234.6288299560547	-549.3925781250001	370.7700195312501	363.0770263671875	-496.8366699218752	331.3146057128907	314.0574951171875	-784.0252075195315	144.728012084961	314.4460449218749	-747.0504760742189	148.646957397461	232.8073272705078	-832.2875976562502	156.1748657226563	258.6057128906249	-725.3449096679689	28.30819892883301	234.5985717773437	-720.7133789062501	33.87438201904298	286.5072631835937	-762.0408325195314	42.28347778320313	326.9602661132812	-513.4246215820314	1368.670776367188	210.4028625488281	-564.2760009765626	1088.62353515625	215.1301879882812	-343.7432556152344	1064.724975585938	217.860824584961	-396.7272949218751	1289.45654296875	207.3830261230469	-587.5944824218751	1145.707763671875	149.7065429687499	-556.3738403320314	1286.4560546875	134.8038482666015	-519.6198730468751	1291.579345703125	56.35588836669917	-472.3005676269532	1297.086547851563	42.08094024658198	-587.7517700195314	1005.933654785156	3.294334888458181	-580.2874145507814	993.6648559570315	83.85804748535151	-602.8988037109376	988.9780883789065	44.76690292358392	-578.9326782226564	758.5603027343751	-20.63129997253425	-650.8377685546876	790.4910278320315	-34.99881362915048	-606.6408691406251	669.2052001953126	-25.11648941040047	-689.8212280273439	723.3785400390626	-31.05631828308115	-574.5161132812501	1149.29443359375	316.9742126464844	-553.2892456054689	1292.477416992188	304.8785400390625	-496.2130737304689	1300.743774414063	376.5505981445312	-447.533905029297	1301.0517578125	387.5891113281251	-413.9797973632814	995.322204589844	481.0793151855469	-436.9336853027345	971.210876464844	406.0917968750001	-425.0618591308595	959.9578247070315	455.2060852050782	-180.795883178711	919.1943969726565	418.7021789550782	-215.8630981445314	868.4473266601565	472.1047363281251	-98.94787597656259	880.7131958007815	424.7899475097657	-159.7873535156251	824.137145996094	481.3594665527345	
57	0.5600000000000001	-329.7590026855469	876.706237792969	106.7525939941406	-538.6626586914064	912.2982177734377	150.505126953125	-544.6604003906251	908.4602661132815	257.5444030761719	-353.5029907226564	853.9314575195315	342.9500122070312	-396.0025939941407	859.051208496094	32.0761337280273	-264.7657775878907	445.9276428222657	87.68128967285155	-267.4328002929688	445.5995483398439	215.8164978027344	-262.0566101074219	382.0515136718751	85.92430877685545	-215.7085418701173	388.3870239257814	146.1907806396484	-238.6932373046876	62.46621704101564	130.3903503417969	-216.0260314941407	86.03089141845705	214.3945922851563	-281.3245239257813	16.80325508117676	186.6246337890625	-90.60688018798832	30.94716835021973	194.1859130859376	-89.16072082519534	34.82238769531251	142.4042205810547	-145.7432250976563	12.97352504730225	100.255241394043	-441.4480895996095	826.9251098632815	408.2799377441407	-484.7403564453127	407.1644287109376	362.3406677246094	-442.1697387695314	396.5232543945314	237.1465454101562	-523.4970703125001	370.3040161132813	365.7578735351562	-471.0553588867189	329.7017211914063	317.0769958496094	-765.8156127929689	153.8186798095703	315.7499084472656	-728.0387573242189	156.1424560546875	234.1988677978515	-813.0784912109377	168.5487213134766	259.5244140624999	-715.2386474609376	31.96789932250977	236.6515655517578	-710.7086181640626	37.02567291259766	288.1683349609374	-750.6881103515626	48.94358062744142	328.1590881347656	-498.076629638672	1369.7431640625	208.7557067871094	-548.5584106445314	1089.511840820313	213.7530822753906	-328.3652648925782	1066.047241210938	217.0941772460938	-381.2443237304688	1290.700439453125	206.3520660400391	-571.6333007812501	1146.806762695313	147.9019165039062	-540.5270996093751	1287.664672851563	132.91015625	-503.2533264160157	1292.580688476563	54.70322036743159	-455.9857788085939	1298.01513671875	40.73903274536128	-569.0791015625001	1006.218322753906	1.090198516845634	-562.2479248046876	994.0664062500002	81.95571136474604	-584.4485473632814	989.0383300781252	42.66934967041009	-559.0415649414064	758.6011352539064	-22.0252876281739	-630.6023559570314	790.3060302734377	-37.53745269775399	-586.3555297851564	669.1530151367189	-27.14669418334969	-669.4614868164064	723.2459106445314	-34.3129425048829	-559.4235229492189	1150.429809570313	315.4970397949219	-538.2185668945314	1293.624633789063	303.1562194824219	-481.460906982422	1302.008422851563	375.0312805175781	-432.7583312988283	1302.16064453125	386.3167114257813	-403.8594970703127	995.8777465820315	479.9596557617188	-426.6934814453127	972.2664184570315	404.7807922363282	-415.3848571777345	960.7314453125002	454.1875610351563	-171.526092529297	916.5218505859377	418.2806396484376	-207.5903472900392	866.0512695312502	471.1673583984376	-90.27104949951179	876.7559814453127	424.5070800781251	-152.2500457763673	820.836364746094	480.4883728027345	
58	0.5700000000000001	-315.3869323730469	878.9592895507815	104.8713684082031	-524.4966430664064	914.0545043945315	151.4969177246093	-529.5176391601564	908.9390869140627	258.7153015136719	-337.886199951172	854.1184082031252	340.6654663085938	-382.6582336425782	862.1359863281252	31.18278694152828	-252.975814819336	446.7492065429689	86.68457794189452	-255.4488372802735	446.818817138672	214.5298309326172	-251.3955078125001	382.6679382324219	85.02674865722655	-205.3306274414063	388.0430908203126	145.4223785400391	-237.6284637451173	62.38138961791994	130.6405639648438	-214.7930450439454	85.4155960083008	214.7495422363282	-281.5834045410157	17.30525779724121	186.5039825439453	-90.1321182250977	27.31619834899903	194.5819091796876	-88.25613403320315	31.83630943298341	142.4142456054688	-146.0923461914063	11.84840774536133	99.79055023193361	-424.2379455566408	826.1087036132815	407.5460510253907	-457.9522399902345	405.907928466797	364.5022277832031	-413.6525878906252	394.7621459960939	239.3222351074219	-496.6060791015627	370.1215515136719	368.1630859375	-444.3024902343752	328.7144775390626	319.6725463867188	-745.5386352539064	162.5338745117188	316.9822998046874	-707.1461791992189	163.3685607910157	235.5050811767578	-791.9692382812502	179.8914337158203	260.4209899902343	-701.7784423828126	36.00045013427735	239.2469177246093	-697.4873657226564	40.83658981323243	290.3438720703124	-736.3060913085939	56.09859466552736	329.7527160644531	-482.8143310546876	1371.022094726563	207.2698516845703	-533.0582885742189	1090.658447265625	212.3649291992188	-313.2351074218751	1067.448974609375	216.4443054199219	-365.8713378906251	1292.09619140625	205.4750366210938	-555.8429565429689	1148.17431640625	146.0912475585937	-524.7645263671876	1289.138916015625	131.1234893798828	-486.9181518554689	1293.848266601563	53.143138885498	-439.6551208496095	1299.202026367188	39.54611206054683	-550.0652465820314	1006.589538574219	-1.21321094036109	-543.9960937500001	994.5876464843752	80.00635528564447	-565.6857299804689	989.1494750976565	40.45176315307611	-538.1837158203126	758.7639160156251	-23.36994361877449	-609.3750610351564	790.0671386718752	-40.33619308471688	-564.8736572265626	669.1546020507814	-29.10579872131355	-647.9625854492189	722.9835815429689	-37.92630767822274	-544.5484008789064	1151.773315429688	314.0403442382812	-523.2645263671876	1294.969604492188	301.5434265136719	-466.8283691406252	1303.419677734375	373.6354064941406	-418.1166076660158	1303.398315429688	385.1959228515626	-394.2085876464845	996.4801025390627	478.7065124511719	-416.765106201172	973.4649047851565	403.2642211914063	-406.2261657714845	961.639099121094	453.0215454101563	-162.938934326172	913.0879516601565	418.1399536132814	-200.2777557373048	862.9900512695315	470.3536987304689	-82.5004959106446	871.6535644531252	424.5170288085939	-145.9173889160157	816.5939941406252	479.6971435546876	
